<svg viewBox="0 0 800 600" xmlns="http://www.w3.org/2000/svg">
  <defs>
    <linearGradient id="bg1" x1="0" y1="0" x2="1" y2="1">
      <stop offset="0%" stop-color="#e7f5ec"/>
      <stop offset="100%" stop-color="#bfe3cd"/>
    </linearGradient>
  </defs>
  <rect width="800" height="600" fill="url(#bg1)"/>
  <circle cx="640" cy="90" r="140" fill="#ffffff" opacity="0.25"/>
  <circle cx="80" cy="520" r="180" fill="#24402f" opacity="0.06"/>

  <!-- leaf motif -->
  <g transform="translate(120,360)">
    <path d="M0 120 C 0 40 60 -20 160 -30 C 150 70 90 120 0 120 Z" fill="#3f8f61" opacity="0.9"/>
    <path d="M0 120 C 40 60 90 20 155 -25" stroke="#24402f" stroke-width="4" fill="none" opacity="0.5"/>
  </g>

  <!-- graduation cap -->
  <g transform="translate(370,190)">
    <polygon points="120,0 240,45 120,90 0,45" fill="#24402f"/>
    <polygon points="120,10 215,45 120,80 25,45" fill="#3f8f61"/>
    <rect x="112" y="45" width="16" height="70" rx="6" fill="#24402f"/>
    <circle cx="120" cy="120" r="10" fill="#24402f"/>
    <line x1="228" y1="50" x2="228" y2="100" stroke="#24402f" stroke-width="4"/>
    <circle cx="228" cy="106" r="6" fill="#24402f"/>
  </g>

  <!-- small flask -->
  <g transform="translate(520,340)">
    <path d="M25 0 H55 V40 L85 110 A18 18 0 0 1 68 135 H12 A18 18 0 0 1 -5 110 L25 40 Z" fill="#ffffff" stroke="#24402f" stroke-width="5"/>
    <path d="M2 100 H78 L68 118 A10 10 0 0 1 59 124 H21 A10 10 0 0 1 12 118 Z" fill="#3f8f61"/>
    <rect x="18" y="-10" width="44" height="12" rx="4" fill="#24402f"/>
  </g>

  <text x="60" y="70" font-family="Georgia, serif" font-size="34" font-weight="600" fill="#24402f">Sabahın alimləri</text>
  <text x="60" y="102" font-family="Arial, sans-serif" font-size="18" fill="#3f6b52">Ecology &amp; Environmental Management · 2025</text>
</svg>
